<svg id="Capa_1" data-name="Capa 1" xmlns="http://www.w3.org/2000/svg" viewBox="0 0 90 90"><defs><style>.cls-1{fill:#d1867d;}.cls-2{fill:#ffeff1;}</style></defs><title>Sin título-1</title><path class="cls-1" d="M84.05,45A39,39,0,1,1,45,6a39,39,0,0,1,39,39"/><path class="cls-1" d="M45,3.41A41.59,41.59,0,1,0,86.59,45,41.64,41.64,0,0,0,45,3.41M45,90A45,45,0,1,1,90,45,45,45,0,0,1,45,90"/><path class="cls-2" d="M19.63,39.47a1.66,1.66,0,0,1,.47-.59,1,1,0,0,1,.62-.18,1,1,0,0,1,.81.3,1.8,1.8,0,0,1,.23,1l0,3a1.66,1.66,0,0,1-.26,1.08,1.32,1.32,0,0,1-1,.28,1.12,1.12,0,0,1-.76-.24,1.72,1.72,0,0,1-.44-.85,2.88,2.88,0,0,0-1-1.6,3.08,3.08,0,0,0-1.82-.47,3.25,3.25,0,0,0-2.72,1.2,5.56,5.56,0,0,0-.94,3.49,5.55,5.55,0,0,0,1,3.53,3.38,3.38,0,0,0,2.81,1.24,5,5,0,0,0,1-.1c.35-.06.77-.17,1.25-.3V48.47H17.61a1.71,1.71,0,0,1-1.12-.29,1.21,1.21,0,0,1-.33-1,1.28,1.28,0,0,1,.33-1,1.65,1.65,0,0,1,1.12-.3h4.18a1.71,1.71,0,0,1,1.13.29,1.52,1.52,0,0,1,0,1.92,1.26,1.26,0,0,1-1,.33h-.18v2.89a1.16,1.16,0,0,1-.08.51,1,1,0,0,1-.33.3,7.55,7.55,0,0,1-2.1.7,14.79,14.79,0,0,1-2.9.3,6.41,6.41,0,0,1-4.9-2A7.37,7.37,0,0,1,9.6,45.93a7.32,7.32,0,0,1,1.9-5.17,6.28,6.28,0,0,1,4.82-2.06,6.87,6.87,0,0,1,1.61.19,9.79,9.79,0,0,1,1.7.58"/><path class="cls-2" d="M27.21,46.52v3.75h2.73a1.75,1.75,0,0,1,1.12.29,1.26,1.26,0,0,1,.33,1,1.32,1.32,0,0,1-.33,1,1.75,1.75,0,0,1-1.12.3H23.47a1.74,1.74,0,0,1-1.13-.3,1.25,1.25,0,0,1-.34-1,1.23,1.23,0,0,1,.33-1,1.79,1.79,0,0,1,1.15-.29h.88V44.65h-.5a1.71,1.71,0,0,1-1.12-.29,1.27,1.27,0,0,1-.33-1,1.25,1.25,0,0,1,.31-1,1.67,1.67,0,0,1,1.13-.29h2.47a.76.76,0,0,1,.48.13.43.43,0,0,1,.18.37v1.7a9.47,9.47,0,0,1,2.35-1.93,5,5,0,0,1,2.35-.57,2.94,2.94,0,0,1,1.82.51,1.64,1.64,0,0,1,.67,1.39,1.44,1.44,0,0,1-.46,1.1,1.66,1.66,0,0,1-1.19.43,2.6,2.6,0,0,1-1.23-.38,2.73,2.73,0,0,0-1-.38A2.51,2.51,0,0,0,29,45a11.66,11.66,0,0,0-1.78,1.53"/><path class="cls-2" d="M41.26,48c-.38-.08-.74-.15-1.06-.19a7.41,7.41,0,0,0-.9-.06,4,4,0,0,0-2,.42,1.33,1.33,0,0,0-.72,1.19,1.21,1.21,0,0,0,.46,1,2.19,2.19,0,0,0,1.33.35,5,5,0,0,0,1.51-.23,4.94,4.94,0,0,0,1.38-.72Zm2.8,2.23h.19a1.15,1.15,0,0,1,1.28,1.28,1.21,1.21,0,0,1-.34,1,1.68,1.68,0,0,1-1.13.3H43a1.46,1.46,0,0,1-.87-.22,1.58,1.58,0,0,1-.46-.8,8.28,8.28,0,0,1-2,1,7.4,7.4,0,0,1-2.18.34,4.28,4.28,0,0,1-2.92-.93,3.15,3.15,0,0,1-1.07-2.53,3.1,3.1,0,0,1,1.38-2.7,6.67,6.67,0,0,1,3.86-1c.37,0,.77,0,1.18.06s.88.1,1.4.18V46a2.28,2.28,0,0,0-.5-1.59,1.94,1.94,0,0,0-1.49-.54,4.69,4.69,0,0,0-1.94.56,4.77,4.77,0,0,1-1.75.57,1.21,1.21,0,0,1-.88-.32,1.11,1.11,0,0,1-.33-.84c0-.62.45-1.12,1.37-1.48a10.19,10.19,0,0,1,3.73-.55,5.23,5.23,0,0,1,3.53,1A4.11,4.11,0,0,1,44.06,46Z"/><path class="cls-2" d="M50.16,42.76h3.52a1.76,1.76,0,0,1,1.14.29,1.55,1.55,0,0,1,0,2,1.68,1.68,0,0,1-1.13.3H50.16v3A2.81,2.81,0,0,0,50.54,50a1.65,1.65,0,0,0,1.34.47A5.56,5.56,0,0,0,54,49.91a5.72,5.72,0,0,1,1.64-.52,1.08,1.08,0,0,1,.82.38,1.29,1.29,0,0,1,.34.91c0,.59-.54,1.14-1.61,1.63a8.92,8.92,0,0,1-3.66.73,6.35,6.35,0,0,1-2.1-.32A3.32,3.32,0,0,1,48,51.79a2.76,2.76,0,0,1-.55-1.11,10.57,10.57,0,0,1-.16-2.16V45.3H46.22a1.64,1.64,0,0,1-1.11-.3,1.29,1.29,0,0,1-.33-1,1.22,1.22,0,0,1,.32-1,1.71,1.71,0,0,1,1.12-.29h1.09v-2.7a1.22,1.22,0,0,1,1.43-1.45,1.51,1.51,0,0,1,1.09.33,1.53,1.53,0,0,1,.33,1.12Z"/><path class="cls-2" d="M62.52,36.89a1.48,1.48,0,0,1,1.13.32,2.79,2.79,0,0,1,.27,1.55,2.6,2.6,0,0,1-.25,1.47c-.16.19-.55.28-1.17.28a1.69,1.69,0,0,1-1.16-.27,1.51,1.51,0,0,1-.26-1.06,4.27,4.27,0,0,1,.26-1.89c.18-.27.57-.4,1.18-.4m1.67,13.38h2.49a1.74,1.74,0,0,1,1.13.29,1.23,1.23,0,0,1,.33,1,1.26,1.26,0,0,1-.34,1,1.73,1.73,0,0,1-1.12.3H58.85a1.75,1.75,0,0,1-1.12-.3,1.26,1.26,0,0,1-.34-1,1.19,1.19,0,0,1,.33-1,1.74,1.74,0,0,1,1.13-.29h2.49V44.65H60a1.74,1.74,0,0,1-1.11-.29,1.27,1.27,0,0,1-.33-1,1.26,1.26,0,0,1,.32-1,1.65,1.65,0,0,1,1.12-.3h3.49a.75.75,0,0,1,.49.14.43.43,0,0,1,.18.37Z"/><path class="cls-2" d="M71.13,52.65a2.58,2.58,0,0,1-.62.35,1.84,1.84,0,0,1-.66.12.83.83,0,0,1-.7-.27,1.76,1.76,0,0,1-.2-1V50.32a1.74,1.74,0,0,1,.26-1.08,1,1,0,0,1,.87-.32,1.3,1.3,0,0,1,1.12.66,4.42,4.42,0,0,0,.42.53,3.77,3.77,0,0,0,1.32.76,5.34,5.34,0,0,0,1.71.26A2.36,2.36,0,0,0,76,50.8a1,1,0,0,0,.51-.84c0-.62-.9-1.05-2.68-1.29l-.92-.13a5.94,5.94,0,0,1-3-1.1,2.67,2.67,0,0,1-1-2.19,3,3,0,0,1,1.17-2.52,5.56,5.56,0,0,1,3.37-.89A10.41,10.41,0,0,1,75,42a11.44,11.44,0,0,1,1.62.38,1.7,1.7,0,0,1,.52-.43,1.22,1.22,0,0,1,.61-.14.89.89,0,0,1,.72.3,1.36,1.36,0,0,1,.25.88v1.42a1.09,1.09,0,0,1-.26.77.93.93,0,0,1-.71.27,3.63,3.63,0,0,1-1.63-.82,3.9,3.9,0,0,0-2.31-.83,2.84,2.84,0,0,0-1.4.29.92.92,0,0,0-.5.82c0,.54.7.9,2.09,1.09l1,.11a8.26,8.26,0,0,1,3.59,1.14,2.69,2.69,0,0,1,1,2.25,3.13,3.13,0,0,1-1.3,2.7,6,6,0,0,1-3.66,1A12.87,12.87,0,0,1,72.78,53a12.36,12.36,0,0,1-1.65-.35"/></svg>