<svg id="Capa_1" data-name="Capa 1" xmlns="http://www.w3.org/2000/svg" viewBox="0 0 92.99 92.69"><defs><style>.cls-1{fill:none;stroke:#d1867d;stroke-width:4.72px;}.cls-2{fill:#fff;}</style></defs><title>Sin título-1</title><path class="cls-1" d="M19.31,22.77l6-1.26a20.74,20.74,0,0,1,24.57,16l1.26,6a.65.65,0,0,1-.51.77l-6,1.25a20.73,20.73,0,0,1-24.56-16l-1.26-6A.66.66,0,0,1,19.31,22.77Zm70.8,0-6-1.26a20.74,20.74,0,0,0-24.57,16l-1.26,6a.65.65,0,0,0,.51.77l6,1.25a20.74,20.74,0,0,0,24.57-16l1.25-6A.64.64,0,0,0,90.11,22.77ZM53.45,50.58,49.14,54.9a20.74,20.74,0,0,0,0,29.33l4.31,4.31a.64.64,0,0,0,.92,0l4.31-4.31a20.72,20.72,0,0,0,0-29.33l-4.31-4.32A.66.66,0,0,0,53.45,50.58ZM90.11,69.4l-6,1.25a20.74,20.74,0,0,1-24.57-16l-1.26-6a.66.66,0,0,1,.51-.77l6-1.25a20.74,20.74,0,0,1,24.57,16l1.25,6A.65.65,0,0,1,90.11,69.4ZM2.88,88.62l6,1.26a20.73,20.73,0,0,0,24.56-16l1.26-6a.65.65,0,0,0-.51-.77l-6-1.26a20.75,20.75,0,0,0-24.57,16l-1.25,6A.64.64,0,0,0,2.88,88.62Zm52-48.11,4.31-4.31a20.75,20.75,0,0,0,0-29.34L54.9,2.55a.66.66,0,0,0-.92,0L49.66,6.86a20.75,20.75,0,0,0,0,29.34L54,40.51A.66.66,0,0,0,54.9,40.51Z"/><path class="cls-2" d="M69.65,45.08a15,15,0,1,1-15-15,15,15,0,0,1,15,15"/><circle class="cls-1" cx="54.7" cy="45.08" r="14.95"/></svg>