<svg id="Capa_1" data-name="Capa 1" xmlns="http://www.w3.org/2000/svg" viewBox="0 0 76.43 97.13"><defs><style>.cls-1{fill:#d1867d;}</style></defs><title>Sin título-1</title><path class="cls-1" d="M2.73,94.52h71L67.78,27.57H8.65Zm72.39,2.61H1.3a1.35,1.35,0,0,1-1-.42,1.35,1.35,0,0,1-.34-1L6.16,26.15A1.3,1.3,0,0,1,7.45,25H69a1.31,1.31,0,0,1,1.3,1.19l6.15,69.56a1.34,1.34,0,0,1-.33,1,1.35,1.35,0,0,1-1,.42"/><path class="cls-1" d="M56.79,37.5a1.31,1.31,0,0,1-1.31-1.3V18.29C55.48,9.64,48.13,2.6,39.1,2.6s-16.39,7-16.39,15.69V36.2a1.3,1.3,0,1,1-2.6,0V18.29C20.11,8.21,28.62,0,39.1,0s19,8.21,19,18.29V36.2a1.3,1.3,0,0,1-1.3,1.3"/><path class="cls-1" d="M10.87,61.21A2.14,2.14,0,0,1,12.94,59h4.93a2.18,2.18,0,0,1,0,4.36H12.94a2.13,2.13,0,0,1-2.07-2.18"/><path class="cls-1" d="M26.47,66.43h5.39v-.1a1.49,1.49,0,0,1,.43-1.17,1.83,1.83,0,0,1,1.25-.38,1.37,1.37,0,0,1,1.05.38A1.45,1.45,0,0,1,35,66.23v.2l-.12,2.39a1.4,1.4,0,0,1-.23.89,1,1,0,0,1-.69.18H22.83a2.13,2.13,0,0,1-1.37-.38A1.3,1.3,0,0,1,21,68.42a2.38,2.38,0,0,1,.3-1.15,5,5,0,0,1,1-1.2l6.26-6a7.47,7.47,0,0,0,1.52-2,4.27,4.27,0,0,0,.5-2A2.86,2.86,0,0,0,29.86,54a2.78,2.78,0,0,0-2.05-.68,4,4,0,0,0-1.43.24,2.21,2.21,0,0,0-1,.67,7.12,7.12,0,0,0-.45.66c-.49.8-1,1.2-1.63,1.2a1.39,1.39,0,0,1-1.16-.5,2.47,2.47,0,0,1-.39-1.51A3.82,3.82,0,0,1,22,52.54a2.91,2.91,0,0,1,1-1,9.41,9.41,0,0,1,2.53-1.19A10.26,10.26,0,0,1,28.44,50a6.58,6.58,0,0,1,4.63,1.57,5.44,5.44,0,0,1,1.7,4.22,7,7,0,0,1-.88,3.4,12.17,12.17,0,0,1-2.75,3.24Z"/><path class="cls-1" d="M41.17,53.9v3.56A17.11,17.11,0,0,1,43,57a9.55,9.55,0,0,1,1.53-.14A5.83,5.83,0,0,1,49,58.72a6.7,6.7,0,0,1,1.71,4.8,6.32,6.32,0,0,1-2.09,5.12c-1.4,1.18-3.43,1.76-6.09,1.76a11.62,11.62,0,0,1-4.35-.63,2,2,0,0,1-1.49-1.86,1.76,1.76,0,0,1,.52-1.27,1.69,1.69,0,0,1,1.26-.53,8.8,8.8,0,0,1,1.93.44,9,9,0,0,0,2.55.45,3.75,3.75,0,0,0,2.69-.9,3.33,3.33,0,0,0,1-2.55,3.54,3.54,0,0,0-.9-2.55,3.19,3.19,0,0,0-2.44-1,5.71,5.71,0,0,0-2.34.63,5.75,5.75,0,0,1-1.85.63,1.5,1.5,0,0,1-1.26-.48,2.87,2.87,0,0,1-.36-1.66V51.72c0-.56.07-.91.22-1a1,1,0,0,1,.76-.22h10.1a1.87,1.87,0,0,1,1.33.38,2.62,2.62,0,0,1,0,2.7,1.88,1.88,0,0,1-1.34.37Z"/><path class="cls-1" d="M61.21,64.35a2.17,2.17,0,0,0-1.51.51,1.87,1.87,0,0,0,0,2.69,2.17,2.17,0,0,0,1.51.51,2.1,2.1,0,0,0,1.48-.51,1.75,1.75,0,0,0,.57-1.35,1.7,1.7,0,0,0-.57-1.33,2.09,2.09,0,0,0-1.48-.52m0-2.34a4.55,4.55,0,0,1,3.23,1.2,4.14,4.14,0,0,1,0,6,4.52,4.52,0,0,1-3.24,1.19A4.6,4.6,0,0,1,58,69.21a4.14,4.14,0,0,1,0-6A4.58,4.58,0,0,1,61.21,62m-3.53-9.76a2.14,2.14,0,0,0-1.51.53,1.75,1.75,0,0,0-.57,1.37,1.72,1.72,0,0,0,.57,1.34,2.13,2.13,0,0,0,1.51.52,2.1,2.1,0,0,0,1.49-.52,1.74,1.74,0,0,0,.56-1.34,1.76,1.76,0,0,0-.58-1.36,2.05,2.05,0,0,0-1.47-.54M64.94,59,54.58,63.15a.79.79,0,0,1-.22.06l-.22,0a.79.79,0,0,1-.65-.33,1.19,1.19,0,0,1-.26-.78.85.85,0,0,1,.17-.48,1.13,1.13,0,0,1,.46-.34l10.32-4.1a2,2,0,0,1,.23-.06l.23,0a.85.85,0,0,1,.67.3,1,1,0,0,1,.26.73.84.84,0,0,1-.17.5,1,1,0,0,1-.46.35m-7.26-9a4.56,4.56,0,0,1,3.23,1.2,4.14,4.14,0,0,1,0,6,5,5,0,0,1-6.49,0,4.13,4.13,0,0,1,0-6A4.58,4.58,0,0,1,57.68,50"/></svg>