<svg id="Capa_1" data-name="Capa 1" xmlns="http://www.w3.org/2000/svg" viewBox="0 0 83.66 75.28"><defs><style>.cls-1{fill:#d1867d;}</style></defs><title>Sin título-1</title><path class="cls-1" d="M56.58,49.74c-3.14,3.72-7.25,6.63-13.6,6.63a16.84,16.84,0,0,1-16.8-12.71H21.89a1.21,1.21,0,1,1,0-2.37h3.8a22.75,22.75,0,0,1-.18-2.77,20,20,0,0,1,.25-3.31H21.89a1.21,1.21,0,1,1,0-2.38h4.47a16.88,16.88,0,0,1,16.2-12.26,17.25,17.25,0,0,1,13.9,6.18,1.25,1.25,0,0,1,.37.79,1.36,1.36,0,0,1-1.45,1.19,1.7,1.7,0,0,1-1.27-.54c-3.15-3.42-6.23-5.35-11.67-5.35-6.1,0-11.06,4.16-13,10h16a1.21,1.21,0,1,1,0,2.38H28.9a18.88,18.88,0,0,0-.3,3.21,21.88,21.88,0,0,0,.18,2.87H45.4a1.21,1.21,0,1,1,0,2.37H29.32A14.1,14.1,0,0,0,43.17,54.1c4.95,0,8.4-2.33,11.12-5.59A1.47,1.47,0,0,1,55.5,48c.78,0,1.39.45,1.39,1.09a1,1,0,0,1-.31.69"/><path class="cls-1" d="M39.6,75.28C17.77,75.28,0,58.4,0,37.64,0,19.36,13.72,3.78,32.62.58A1.73,1.73,0,0,1,33.2,4C16,6.91,3.47,21.06,3.47,37.64c0,18.85,16.2,34.18,36.13,34.18a1.73,1.73,0,0,1,0,3.46"/><path class="cls-1" d="M50.74,74.73a1.73,1.73,0,0,1-.29-3.44c17.24-2.91,29.74-17.06,29.74-33.65C80.19,18.79,64,3.46,44.06,3.46a1.73,1.73,0,1,1,0-3.46c21.83,0,39.6,16.89,39.6,37.64C83.66,55.92,69.94,71.51,51,74.7a1.43,1.43,0,0,1-.29,0"/><path class="cls-1" d="M20.71,59.89a1.76,1.76,0,0,1-1.23-.5,1.73,1.73,0,0,1,0-2.45L61,15.41a1.73,1.73,0,1,1,2.45,2.45L21.93,59.39a1.75,1.75,0,0,1-1.22.5"/></svg>