<svg id="Capa_1" data-name="Capa 1" xmlns="http://www.w3.org/2000/svg" viewBox="0 0 227.72 94.1"><defs><style>.cls-1,.cls-2{fill:#1d1d1b;}.cls-2{stroke:#1d1d1b;stroke-miterlimit:10;stroke-width:0.5px;}</style></defs><title>ses nines logo_final</title><path class="cls-1" d="M25.47,50.81a6.44,6.44,0,0,1-2.86-2l1.09-1.55a7.29,7.29,0,0,0,2.39,1.67,6.93,6.93,0,0,0,2.89.62,5.56,5.56,0,0,0,3.18-.87A3,3,0,0,0,33.46,46a3,3,0,0,0-.7-2.07,4.41,4.41,0,0,0-1.59-1.14c-.6-.25-1.56-.59-2.89-1a9.55,9.55,0,0,1-3.61-2,4.29,4.29,0,0,1-1.27-3.26,4.91,4.91,0,0,1,1.67-3.86,6.2,6.2,0,0,1,4.26-1.47,8,8,0,0,1,5.82,2.19l-1,1.65a4.23,4.23,0,0,0-2-1.45A7.92,7.92,0,0,0,29.67,33a4.73,4.73,0,0,0-2.71.82,2.63,2.63,0,0,0-1.22,2.31,2.66,2.66,0,0,0,1.1,2.32,15,15,0,0,0,3.33,1.57,14.1,14.1,0,0,1,4.19,2,4.06,4.06,0,0,1,1.44,3.41,5.69,5.69,0,0,1-1.72,4.33,6.87,6.87,0,0,1-4.95,1.65A10.61,10.61,0,0,1,25.47,50.81Z"/><path class="cls-1" d="M57.06,47.27,58.25,49A11.91,11.91,0,0,1,55,50.79a10.88,10.88,0,0,1-9-.68,9.52,9.52,0,0,1-3.68-3.66A10.28,10.28,0,0,1,41,41.25a9.93,9.93,0,0,1,1.39-5.15,10.35,10.35,0,0,1,3.79-3.76,10.16,10.16,0,0,1,5.22-1.4,8.72,8.72,0,0,1,5.78,2,11.34,11.34,0,0,1,3.48,5.37L44,44.74a8,8,0,0,0,7.37,4.68A8.59,8.59,0,0,0,57.06,47.27ZM47.2,34a7.89,7.89,0,0,0-2.89,3,8.45,8.45,0,0,0-1,4.16,7.25,7.25,0,0,0,.2,1.84l14.34-5.62a8.17,8.17,0,0,0-2.64-3.21,6.52,6.52,0,0,0-3.94-1.22A7.74,7.74,0,0,0,47.2,34Z"/><path class="cls-1" d="M68,50.81a6.49,6.49,0,0,1-2.86-2l1.09-1.55a7.29,7.29,0,0,0,2.39,1.67,6.93,6.93,0,0,0,2.89.62,5.61,5.61,0,0,0,3.19-.87A3,3,0,0,0,76,46a3,3,0,0,0-.7-2.07,4.41,4.41,0,0,0-1.59-1.14c-.6-.25-1.56-.59-2.89-1a9.55,9.55,0,0,1-3.61-2A4.33,4.33,0,0,1,66,36.47a4.91,4.91,0,0,1,1.67-3.86,6.2,6.2,0,0,1,4.26-1.47,8,8,0,0,1,5.82,2.19l-1,1.65a4.23,4.23,0,0,0-2-1.45A7.92,7.92,0,0,0,72.24,33a4.73,4.73,0,0,0-2.71.82,2.63,2.63,0,0,0-1.22,2.31,2.66,2.66,0,0,0,1.1,2.32,15,15,0,0,0,3.33,1.57,14.1,14.1,0,0,1,4.19,2,4.06,4.06,0,0,1,1.44,3.41,5.69,5.69,0,0,1-1.72,4.33,6.85,6.85,0,0,1-5,1.65A10.61,10.61,0,0,1,68,50.81Z"/><path class="cls-1" d="M115.56,32.66a5.86,5.86,0,0,1,1.79,4.21V51.06H115V37.52a4.82,4.82,0,0,0-1.24-3.17,4.48,4.48,0,0,0-3.29-1.27,7.24,7.24,0,0,0-6.34,3.61,7.53,7.53,0,0,0-1,3.91V51.06h-2.35V31.59h2l.2,4.33a7.41,7.41,0,0,1,3.21-3.56,9.76,9.76,0,0,1,5-1.32A6.08,6.08,0,0,1,115.56,32.66Z"/><path class="cls-1" d="M121.89,24.42a1.57,1.57,0,0,1,1.14-.5,1.67,1.67,0,0,1,1.17.5,1.63,1.63,0,0,1,0,2.39,1.67,1.67,0,0,1-1.17.5,1.57,1.57,0,0,1-1.14-.5,1.68,1.68,0,0,1,0-2.39Zm6.67,7.17V51.06h-2.34V31.59Zm2-7.17a1.63,1.63,0,0,1,1.19-.5,1.7,1.7,0,0,1,0,3.39,1.69,1.69,0,0,1-1.19-2.89Z"/><path class="cls-1" d="M152.26,32.66a5.94,5.94,0,0,1,1.79,4.21V51.06h-2.39V37.52a4.83,4.83,0,0,0-1.25-3.17,4.45,4.45,0,0,0-3.28-1.27,7.28,7.28,0,0,0-6.35,3.61,7.53,7.53,0,0,0-1,3.91V51.06h-2.34V31.59h2l.2,4.33a7.41,7.41,0,0,1,3.21-3.56,9.77,9.77,0,0,1,5-1.32A6.08,6.08,0,0,1,152.26,32.66Z"/><path class="cls-1" d="M177.1,47.27l1.2,1.7A12.06,12.06,0,0,1,175,50.79a10.74,10.74,0,0,1-3.66.67A10.62,10.62,0,0,1,166,50.11a9.59,9.59,0,0,1-3.68-3.66,10.28,10.28,0,0,1-1.32-5.2,9.93,9.93,0,0,1,1.39-5.15,10.35,10.35,0,0,1,3.79-3.76,10.17,10.17,0,0,1,5.23-1.4,8.71,8.71,0,0,1,5.77,2,11.35,11.35,0,0,1,3.49,5.37l-16.63,6.43A7.86,7.86,0,0,0,167,48.12a8,8,0,0,0,4.46,1.3A8.56,8.56,0,0,0,177.1,47.27ZM167.24,34a7.79,7.79,0,0,0-2.88,3,8.35,8.35,0,0,0-1.05,4.16,7.73,7.73,0,0,0,.2,1.84l14.34-5.62a8.17,8.17,0,0,0-2.64-3.21,6.51,6.51,0,0,0-3.93-1.22A7.78,7.78,0,0,0,167.24,34Z"/><path class="cls-1" d="M188.08,50.81a6.49,6.49,0,0,1-2.86-2l1.09-1.55a7.4,7.4,0,0,0,2.39,1.67,7,7,0,0,0,2.89.62,5.61,5.61,0,0,0,3.19-.87A3,3,0,0,0,196.07,46a3,3,0,0,0-.7-2.07,4.41,4.41,0,0,0-1.59-1.14c-.6-.25-1.56-.59-2.89-1a9.55,9.55,0,0,1-3.61-2A4.33,4.33,0,0,1,186,36.47a4.91,4.91,0,0,1,1.67-3.86,6.2,6.2,0,0,1,4.26-1.47,8,8,0,0,1,5.82,2.19l-1,1.65a4.18,4.18,0,0,0-2-1.45,7.85,7.85,0,0,0-2.46-.49,4.76,4.76,0,0,0-2.72.82,2.63,2.63,0,0,0-1.22,2.31,2.66,2.66,0,0,0,1.1,2.32,14.86,14.86,0,0,0,3.34,1.57,14.15,14.15,0,0,1,4.18,2,4.06,4.06,0,0,1,1.44,3.41,5.69,5.69,0,0,1-1.72,4.33,6.85,6.85,0,0,1-4.95,1.65A10.61,10.61,0,0,1,188.08,50.81Z"/><path class="cls-1" d="M79.55,62.26a.46.46,0,0,1,.08-.29.29.29,0,0,1,.21-.09.26.26,0,0,1,.21.09.42.42,0,0,1,.08.3v1a.4.4,0,0,1-.08.29.26.26,0,0,1-.21.09.3.3,0,0,1-.2-.08.38.38,0,0,1-.09-.24.93.93,0,0,0-.42-.68,2.65,2.65,0,0,0-1.49-.38,2.47,2.47,0,0,0-1.49.39.81.81,0,0,0-.41.65.79.79,0,0,0,.48.69,3.85,3.85,0,0,0,1.25.29,9.81,9.81,0,0,1,1.66.29,2.17,2.17,0,0,1,1,.67,1.51,1.51,0,0,1,.32.91,1.66,1.66,0,0,1-.7,1.31,3.23,3.23,0,0,1-2.07.57,3.49,3.49,0,0,1-2.23-.69,1.7,1.7,0,0,1,0,.3.26.26,0,0,1-.1.11.24.24,0,0,1-.16,0,.27.27,0,0,1-.21-.09.44.44,0,0,1-.08-.29V66.24a.47.47,0,0,1,.08-.3.26.26,0,0,1,.21-.09.29.29,0,0,1,.21.09.34.34,0,0,1,.08.23.81.81,0,0,0,.16.52,1.76,1.76,0,0,0,.76.55,3.47,3.47,0,0,0,1.28.21A2.81,2.81,0,0,0,79.32,67a1.18,1.18,0,0,0,.55-.89,1,1,0,0,0-.56-.85,4.18,4.18,0,0,0-1.63-.43,6.34,6.34,0,0,1-1.53-.29,1.59,1.59,0,0,1-.73-.53,1.3,1.3,0,0,1-.26-.77,1.33,1.33,0,0,1,.73-1.17,3.29,3.29,0,0,1,1.73-.43A3,3,0,0,1,79.55,62.26Z"/><path class="cls-1" d="M87,59.22v3.54a3.45,3.45,0,0,1,1-.84,2.56,2.56,0,0,1,1.12-.24,2.6,2.6,0,0,1,1.14.23,2,2,0,0,1,.78.73,1.85,1.85,0,0,1,.31,1v3.56H92a.42.42,0,0,1,.3.08.28.28,0,0,1,.08.2.3.3,0,0,1-.08.21.47.47,0,0,1-.3.08H90.15a.47.47,0,0,1-.3-.08.27.27,0,0,1-.09-.21.25.25,0,0,1,.09-.2.42.42,0,0,1,.3-.08h.64V63.71a1.38,1.38,0,0,0-.44-1A2,2,0,0,0,88,62.56a7,7,0,0,0-1.06,1v3.64h.65a.4.4,0,0,1,.29.08.25.25,0,0,1,.09.2.27.27,0,0,1-.09.21.46.46,0,0,1-.29.08H85.74a.46.46,0,0,1-.29-.08.27.27,0,0,1-.09-.21.25.25,0,0,1,.09-.2.4.4,0,0,1,.29-.08h.65V59.8h-.77a.42.42,0,0,1-.3-.08.29.29,0,0,1-.08-.21.32.32,0,0,1,.08-.21.47.47,0,0,1,.3-.08Z"/><path class="cls-1" d="M103.27,64.85a3.07,3.07,0,0,1-.94,2.25,3.24,3.24,0,0,1-4.55,0,3.16,3.16,0,0,1,0-4.48,3.25,3.25,0,0,1,4.55,0A3.07,3.07,0,0,1,103.27,64.85Zm-.58,0a2.49,2.49,0,0,0-.77-1.83,2.57,2.57,0,0,0-1.87-.76,2.53,2.53,0,0,0-1.86.76,2.57,2.57,0,0,0,0,3.67,2.53,2.53,0,0,0,1.86.76,2.57,2.57,0,0,0,1.87-.76A2.51,2.51,0,0,0,102.69,64.85Z"/><path class="cls-1" d="M109.1,61.88v1a3.54,3.54,0,0,1,1.1-.94,2.87,2.87,0,0,1,1.38-.31,3.23,3.23,0,0,1,1.57.39,2.82,2.82,0,0,1,1.11,1.11,3,3,0,0,1,.39,1.48,2.88,2.88,0,0,1-.88,2.12,3.12,3.12,0,0,1-4.67-.37v3.46h1.39a.44.44,0,0,1,.29.07.29.29,0,0,1,0,.42.44.44,0,0,1-.29.08h-2.74a.47.47,0,0,1-.3-.08.29.29,0,0,1-.08-.21.32.32,0,0,1,.08-.21.47.47,0,0,1,.3-.07h.77V62.46h-.77a.42.42,0,0,1-.3-.08.29.29,0,0,1-.08-.21.32.32,0,0,1,.08-.21.47.47,0,0,1,.3-.08Zm5,2.78a2.28,2.28,0,0,0-.72-1.69,2.55,2.55,0,0,0-3.53,0,2.29,2.29,0,0,0-.72,1.69,2.34,2.34,0,0,0,.72,1.71,2.55,2.55,0,0,0,3.53,0A2.3,2.3,0,0,0,114.07,64.66Z"/><path class="cls-1" d="M120.3,61.88v1a3.66,3.66,0,0,1,1.1-.94,2.87,2.87,0,0,1,1.38-.31,3.23,3.23,0,0,1,1.57.39,2.82,2.82,0,0,1,1.11,1.11,3,3,0,0,1,.39,1.48,2.88,2.88,0,0,1-.88,2.12,3.12,3.12,0,0,1-4.67-.37v3.46h1.39a.47.47,0,0,1,.3.07.32.32,0,0,1,0,.42.47.47,0,0,1-.3.08H119a.44.44,0,0,1-.29-.08.26.26,0,0,1-.09-.21.29.29,0,0,1,.09-.21.44.44,0,0,1,.29-.07h.77V62.46H119a.39.39,0,0,1-.29-.08.26.26,0,0,1-.09-.21.29.29,0,0,1,.09-.21.44.44,0,0,1,.29-.08Zm5,2.78a2.28,2.28,0,0,0-.72-1.69A2.55,2.55,0,0,0,121,63a2.29,2.29,0,0,0-.72,1.69,2.34,2.34,0,0,0,.72,1.71,2.55,2.55,0,0,0,3.53,0A2.3,2.3,0,0,0,125.27,64.66Z"/><path class="cls-1" d="M136.77,65h-5.85a2.77,2.77,0,0,0,.93,1.79,2.82,2.82,0,0,0,1.94.68,4.61,4.61,0,0,0,1.34-.21,3.43,3.43,0,0,0,1.15-.56.4.4,0,0,1,.23-.1.27.27,0,0,1,.19.08.32.32,0,0,1,.08.2.3.3,0,0,1-.11.23,3,3,0,0,1-1.16.64,5.06,5.06,0,0,1-1.72.3,3.41,3.41,0,0,1-2.47-1,3.16,3.16,0,0,1-1-2.34,2.87,2.87,0,0,1,.92-2.15,3.2,3.2,0,0,1,2.3-.89,3.08,3.08,0,0,1,2.31.92A3.17,3.17,0,0,1,136.77,65Zm-.58-.58a2.56,2.56,0,0,0-.9-1.55,2.69,2.69,0,0,0-1.73-.59,2.61,2.61,0,0,0-1.73.59,2.47,2.47,0,0,0-.91,1.55Z"/><path class="cls-1" d="M144.18,61.88v1.45a9.46,9.46,0,0,1,1.67-1.3,2.22,2.22,0,0,1,1-.29,1.54,1.54,0,0,1,1,.34c.29.23.44.41.44.53a.31.31,0,0,1-.3.3.21.21,0,0,1-.12,0,.72.72,0,0,1-.18-.15,2,2,0,0,0-.41-.33.79.79,0,0,0-.35-.09,1.93,1.93,0,0,0-.91.3,13.67,13.67,0,0,0-1.83,1.47v3.15h2.54a.42.42,0,0,1,.3.08.25.25,0,0,1,.09.2.27.27,0,0,1-.09.21.47.47,0,0,1-.3.08h-4.51a.46.46,0,0,1-.29-.08.25.25,0,0,1-.09-.2.23.23,0,0,1,.09-.19.37.37,0,0,1,.29-.08h1.39V62.46h-1.06a.4.4,0,0,1-.29-.08.26.26,0,0,1-.09-.21.32.32,0,0,1,.08-.21.47.47,0,0,1,.3-.08Z"/><line class="cls-2" x1="22.29" y1="65.22" x2="64.96" y2="65.22"/><line class="cls-2" x1="159.74" y1="65.22" x2="202.4" y2="65.22"/></svg>