<?xml version="1.0" encoding="utf-8"?>
<!-- Generator: Adobe Illustrator 22.1.0, SVG Export Plug-In . SVG Version: 6.00 Build 0)  -->
<svg version="1.1" id="Capa_1" xmlns="http://www.w3.org/2000/svg" xmlns:xlink="http://www.w3.org/1999/xlink" x="0px" y="0px"
	 viewBox="0 0 227.7 94.1" style="enable-background:new 0 0 227.7 94.1;" xml:space="preserve">
<style type="text/css">
	.st0{fill:#FFFFFF;}
</style>
<title>ses nines logo_final</title>
<path class="st0" d="M25.5,50.8c-1.1-0.4-2.1-1.1-2.9-2l1.1-1.5c0.7,0.7,1.5,1.3,2.4,1.7c0.9,0.4,1.9,0.6,2.9,0.6
	c1.1,0,2.2-0.3,3.2-0.9c0.9-0.6,1.4-1.6,1.3-2.7c0-0.8-0.2-1.5-0.7-2.1c-0.4-0.5-1-0.9-1.6-1.1c-0.6-0.2-1.6-0.6-2.9-1
	c-1.3-0.4-2.6-1.1-3.6-2c-0.9-0.9-1.3-2-1.3-3.3c-0.1-1.5,0.6-2.9,1.7-3.9c1.2-1,2.7-1.5,4.3-1.5c2.2-0.1,4.3,0.7,5.8,2.2l-1,1.7
	c-0.5-0.7-1.2-1.2-2-1.5c-0.8-0.3-1.6-0.5-2.5-0.6c-1,0-1.9,0.3-2.7,0.8c-0.8,0.5-1.3,1.4-1.2,2.3c-0.1,0.9,0.4,1.8,1.1,2.3
	c1,0.7,2.2,1.2,3.3,1.6c1.5,0.4,2.9,1.1,4.2,2c1,0.8,1.5,2.1,1.4,3.4c0.1,1.6-0.6,3.2-1.7,4.3c-1.4,1.2-3.1,1.8-5,1.7
	C27.9,51.4,26.6,51.2,25.5,50.8z"/>
<path class="st0" d="M57.1,47.3l1.2,1.7c-1,0.8-2.1,1.4-3.2,1.8c-3,1.1-6.2,0.8-9-0.7c-1.5-0.9-2.8-2.1-3.7-3.7
	c-0.9-1.6-1.3-3.4-1.3-5.2c0-1.8,0.5-3.6,1.4-5.2c0.9-1.6,2.2-2.9,3.8-3.8c1.6-0.9,3.4-1.4,5.2-1.4c2.1-0.1,4.2,0.7,5.8,2
	c1.7,1.4,2.9,3.3,3.5,5.4L44,44.7c1.3,2.9,4.2,4.7,7.4,4.7C53.5,49.4,55.5,48.7,57.1,47.3z M47.2,34c-1.2,0.7-2.2,1.8-2.9,3
	c-0.7,1.3-1,2.7-1,4.2c0,0.6,0.1,1.2,0.2,1.8l14.3-5.6c-0.6-1.3-1.5-2.4-2.6-3.2c-1.1-0.8-2.5-1.3-3.9-1.2
	C49.8,32.9,48.4,33.3,47.2,34z"/>
<path class="st0" d="M68,50.8c-1.1-0.4-2.1-1.1-2.9-2l1.1-1.5c0.7,0.7,1.5,1.3,2.4,1.7c0.9,0.4,1.9,0.6,2.9,0.6
	c1.1,0,2.2-0.3,3.2-0.9c0.9-0.6,1.4-1.6,1.3-2.7c0-0.8-0.2-1.5-0.7-2.1c-0.4-0.5-1-0.9-1.6-1.1c-0.6-0.2-1.6-0.6-2.9-1
	c-1.3-0.4-2.6-1.1-3.6-2c-0.9-0.9-1.3-2.1-1.2-3.3c-0.1-1.5,0.6-2.9,1.7-3.9c1.2-1,2.7-1.5,4.3-1.5c2.2-0.1,4.3,0.7,5.8,2.2l-1,1.7
	c-0.5-0.7-1.2-1.2-2-1.5c-0.8-0.3-1.7-0.5-2.5-0.5c-1,0-1.9,0.3-2.7,0.8c-0.8,0.5-1.3,1.4-1.2,2.3c-0.1,0.9,0.4,1.8,1.1,2.3
	c1,0.7,2.2,1.2,3.3,1.6c1.5,0.4,2.9,1.1,4.2,2c1,0.8,1.5,2.1,1.4,3.4c0.1,1.6-0.6,3.2-1.7,4.3c-1.4,1.2-3.2,1.8-5,1.7
	C70.4,51.4,69.2,51.2,68,50.8z"/>
<path class="st0" d="M115.6,32.7c1.1,1.1,1.8,2.6,1.8,4.2v14.2H115V37.5c0-1.2-0.5-2.3-1.2-3.2c-0.9-0.9-2.1-1.3-3.3-1.3
	c-2.6,0-5,1.4-6.3,3.6c-0.7,1.2-1,2.5-1,3.9v10.5h-2.3V31.6h2l0.2,4.3c0.6-1.5,1.8-2.8,3.2-3.6c1.5-0.9,3.2-1.3,5-1.3
	C112.8,31,114.4,31.6,115.6,32.7z"/>
<path class="st0" d="M121.9,24.4c0.3-0.3,0.7-0.5,1.1-0.5c0.4,0,0.9,0.2,1.2,0.5c0.7,0.6,0.7,1.6,0.1,2.3c0,0-0.1,0.1-0.1,0.1
	c-0.3,0.3-0.7,0.5-1.2,0.5c-0.4,0-0.8-0.2-1.1-0.5C121.2,26.2,121.2,25.1,121.9,24.4C121.9,24.4,121.9,24.4,121.9,24.4z M128.6,31.6
	v19.5h-2.3V31.6H128.6z M130.6,24.4c0.3-0.3,0.7-0.5,1.2-0.5c0.9,0.1,1.6,0.9,1.6,1.8c-0.1,0.8-0.7,1.5-1.6,1.6
	c-0.9,0-1.7-0.8-1.7-1.7C130.1,25.2,130.2,24.7,130.6,24.4z"/>
<path class="st0" d="M152.3,32.7c1.1,1.1,1.8,2.6,1.8,4.2v14.2h-2.4V37.5c0-1.2-0.5-2.3-1.2-3.2c-0.9-0.9-2.1-1.3-3.3-1.3
	c-2.6,0-5,1.4-6.4,3.6c-0.7,1.2-1,2.5-1,3.9v10.5h-2.3V31.6h2l0.2,4.3c0.6-1.5,1.8-2.8,3.2-3.6c1.5-0.9,3.2-1.3,5-1.3
	C149.5,31,151.1,31.6,152.3,32.7z"/>
<path class="st0" d="M177.1,47.3l1.2,1.7c-1,0.8-2.1,1.4-3.3,1.8c-1.2,0.4-2.4,0.7-3.7,0.7c-1.9,0-3.7-0.4-5.3-1.3
	c-1.5-0.9-2.8-2.1-3.7-3.7c-0.9-1.6-1.3-3.4-1.3-5.2c0-1.8,0.5-3.6,1.4-5.2c0.9-1.6,2.2-2.9,3.8-3.8c1.6-0.9,3.4-1.4,5.2-1.4
	c2.1-0.1,4.2,0.7,5.8,2c1.7,1.4,2.9,3.3,3.5,5.4L164,44.7c0.6,1.4,1.7,2.6,3,3.4c1.3,0.9,2.9,1.3,4.5,1.3
	C173.5,49.4,175.5,48.6,177.1,47.3z M167.2,34c-1.2,0.7-2.2,1.8-2.9,3c-0.7,1.3-1.1,2.7-1.1,4.2c0,0.6,0.1,1.2,0.2,1.8l14.3-5.6
	c-0.6-1.3-1.5-2.4-2.6-3.2c-1.1-0.8-2.5-1.2-3.9-1.2C169.9,32.9,168.5,33.3,167.2,34z"/>
<path class="st0" d="M188.1,50.8c-1.1-0.4-2.1-1.1-2.9-2l1.1-1.5c0.7,0.7,1.5,1.3,2.4,1.7c0.9,0.4,1.9,0.6,2.9,0.6
	c1.1,0,2.2-0.3,3.2-0.9c0.9-0.6,1.4-1.6,1.3-2.7c0-0.8-0.2-1.5-0.7-2.1c-0.4-0.5-1-0.9-1.6-1.1c-0.6-0.2-1.6-0.6-2.9-1
	c-1.3-0.4-2.6-1.1-3.6-2c-0.9-0.9-1.3-2.1-1.3-3.3c-0.1-1.5,0.6-2.9,1.7-3.9c1.2-1,2.7-1.5,4.3-1.5c2.2-0.1,4.3,0.7,5.8,2.2l-1,1.7
	c-0.5-0.7-1.2-1.2-2-1.5c-0.8-0.3-1.6-0.5-2.5-0.5c-1,0-1.9,0.3-2.7,0.8c-0.8,0.5-1.3,1.4-1.2,2.3c-0.1,0.9,0.4,1.8,1.1,2.3
	c1,0.7,2.2,1.2,3.3,1.6c1.5,0.4,2.9,1.1,4.2,2c1,0.8,1.5,2.1,1.4,3.4c0.1,1.6-0.6,3.2-1.7,4.3c-1.4,1.2-3.1,1.8-4.9,1.7
	C190.5,51.5,189.3,51.2,188.1,50.8z"/>
<path class="st0" d="M79.6,62.3c0-0.1,0-0.2,0.1-0.3c0.1-0.1,0.1-0.1,0.2-0.1c0.1,0,0.2,0,0.2,0.1c0.1,0.1,0.1,0.2,0.1,0.3v1
	c0,0.1,0,0.2-0.1,0.3c-0.1,0.1-0.1,0.1-0.2,0.1c-0.1,0-0.1,0-0.2-0.1c-0.1-0.1-0.1-0.2-0.1-0.2c0-0.3-0.2-0.5-0.4-0.7
	c-0.4-0.3-1-0.4-1.5-0.4c-0.5,0-1,0.1-1.5,0.4c-0.2,0.1-0.4,0.4-0.4,0.7c0,0.3,0.2,0.6,0.5,0.7c0.4,0.2,0.8,0.3,1.2,0.3
	c0.6,0,1.1,0.1,1.7,0.3c0.4,0.1,0.7,0.4,1,0.7c0.2,0.3,0.3,0.6,0.3,0.9c0,0.5-0.3,1-0.7,1.3c-0.6,0.4-1.3,0.6-2.1,0.6
	c-0.8,0-1.6-0.2-2.2-0.7c0,0.1,0,0.2,0,0.3c0,0-0.1,0.1-0.1,0.1c-0.1,0-0.1,0-0.2,0c-0.1,0-0.2,0-0.2-0.1c-0.1-0.1-0.1-0.2-0.1-0.3
	v-1.1c0-0.1,0-0.2,0.1-0.3c0.1-0.1,0.1-0.1,0.2-0.1c0.1,0,0.2,0,0.2,0.1c0.1,0.1,0.1,0.1,0.1,0.2c0,0.2,0,0.4,0.2,0.5
	c0.2,0.2,0.5,0.4,0.8,0.6c0.4,0.1,0.8,0.2,1.3,0.2c0.6,0,1.2-0.1,1.6-0.4c0.3-0.2,0.5-0.5,0.6-0.9c0-0.4-0.2-0.7-0.6-0.8
	c-0.5-0.3-1.1-0.4-1.6-0.4c-0.5,0-1-0.1-1.5-0.3c-0.3-0.1-0.5-0.3-0.7-0.5c-0.2-0.2-0.3-0.5-0.3-0.8c0-0.5,0.3-0.9,0.7-1.2
	c0.5-0.3,1.1-0.4,1.7-0.4C78.3,61.6,79,61.8,79.6,62.3z"/>
<path class="st0" d="M87,59.2v3.5c0.3-0.3,0.6-0.6,1-0.8c0.4-0.2,0.7-0.2,1.1-0.2c0.4,0,0.8,0.1,1.1,0.2c0.3,0.2,0.6,0.4,0.8,0.7
	c0.2,0.3,0.3,0.6,0.3,1v3.6H92c0.1,0,0.2,0,0.3,0.1c0.1,0.1,0.1,0.1,0.1,0.2c0,0.1,0,0.2-0.1,0.2c-0.1,0.1-0.2,0.1-0.3,0.1h-1.8
	c-0.1,0-0.2,0-0.3-0.1c-0.1-0.1-0.1-0.1-0.1-0.2c0-0.1,0-0.2,0.1-0.2c0.1-0.1,0.2-0.1,0.3-0.1h0.6v-3.5c0-0.4-0.2-0.7-0.4-1
	c-0.7-0.6-1.6-0.6-2.3-0.1c-0.4,0.3-0.7,0.6-1.1,1v3.6h0.7c0.1,0,0.2,0,0.3,0.1c0.1,0,0.1,0.1,0.1,0.2c0,0.1,0,0.2-0.1,0.2
	c-0.1,0.1-0.2,0.1-0.3,0.1h-1.9c-0.1,0-0.2,0-0.3-0.1c-0.1-0.1-0.1-0.1-0.1-0.2c0-0.1,0-0.2,0.1-0.2c0.1-0.1,0.2-0.1,0.3-0.1h0.7
	v-7.4h-0.8c-0.1,0-0.2,0-0.3-0.1c-0.1-0.1-0.1-0.1-0.1-0.2c0-0.1,0-0.2,0.1-0.2c0.1-0.1,0.2-0.1,0.3-0.1L87,59.2z"/>
<path class="st0" d="M103.3,64.8c0,0.8-0.3,1.7-0.9,2.2c-1.3,1.2-3.3,1.2-4.6,0c-1.2-1.2-1.2-3.2,0-4.5c0,0,0,0,0,0
	c1.3-1.2,3.3-1.2,4.6,0C102.9,63.2,103.3,64,103.3,64.8z M102.7,64.8c0-0.7-0.3-1.4-0.8-1.8c-0.5-0.5-1.2-0.8-1.9-0.8
	c-0.7,0-1.4,0.3-1.9,0.8c-1,1-1,2.6,0,3.6c0,0,0,0,0,0c0.5,0.5,1.2,0.8,1.9,0.8c0.7,0,1.4-0.3,1.9-0.8
	C102.4,66.2,102.7,65.5,102.7,64.8z"/>
<path class="st0" d="M109.1,61.9v1c0.3-0.4,0.7-0.7,1.1-0.9c0.4-0.2,0.9-0.3,1.4-0.3c0.5,0,1.1,0.1,1.6,0.4c0.5,0.3,0.9,0.6,1.1,1.1
	c0.3,0.5,0.4,1,0.4,1.5c0,0.8-0.3,1.6-0.9,2.1c-1.2,1.2-3.2,1.2-4.4-0.1c-0.1-0.1-0.2-0.2-0.3-0.3v3.5h1.4c0.1,0,0.2,0,0.3,0.1
	c0.1,0.1,0.1,0.3,0,0.4c0,0,0,0,0,0c-0.1,0.1-0.2,0.1-0.3,0.1h-2.7c-0.1,0-0.2,0-0.3-0.1c-0.1-0.1-0.1-0.1-0.1-0.2
	c0-0.1,0-0.2,0.1-0.2c0.1-0.1,0.2-0.1,0.3-0.1h0.8v-7.4h-0.8c-0.1,0-0.2,0-0.3-0.1c-0.1-0.1-0.1-0.1-0.1-0.2c0-0.1,0-0.2,0.1-0.2
	c0.1-0.1,0.2-0.1,0.3-0.1L109.1,61.9z M114.1,64.7c0-0.6-0.3-1.3-0.7-1.7c-1-0.9-2.5-0.9-3.5,0c-0.5,0.4-0.7,1.1-0.7,1.7
	c0,0.6,0.3,1.3,0.7,1.7c1,0.9,2.5,0.9,3.5,0C113.8,65.9,114.1,65.3,114.1,64.7L114.1,64.7z"/>
<path class="st0" d="M120.3,61.9v1c0.3-0.4,0.7-0.7,1.1-0.9c0.4-0.2,0.9-0.3,1.4-0.3c0.5,0,1.1,0.1,1.6,0.4c0.5,0.3,0.9,0.6,1.1,1.1
	c0.3,0.5,0.4,1,0.4,1.5c0,0.8-0.3,1.6-0.9,2.1c-1.2,1.2-3.2,1.2-4.4-0.1c-0.1-0.1-0.2-0.2-0.3-0.3v3.5h1.4c0.1,0,0.2,0,0.3,0.1
	c0.1,0.1,0.1,0.3,0,0.4c-0.1,0.1-0.2,0.1-0.3,0.1H119c-0.1,0-0.2,0-0.3-0.1c-0.1-0.1-0.1-0.1-0.1-0.2c0-0.1,0-0.2,0.1-0.2
	c0.1-0.1,0.2-0.1,0.3-0.1h0.8v-7.4H119c-0.1,0-0.2,0-0.3-0.1c-0.1-0.1-0.1-0.1-0.1-0.2c0-0.1,0-0.2,0.1-0.2c0.1-0.1,0.2-0.1,0.3-0.1
	L120.3,61.9z M125.3,64.7c0-0.6-0.3-1.3-0.7-1.7c-1-1-2.6-1-3.6,0c-0.5,0.4-0.7,1.1-0.7,1.7c0,0.6,0.3,1.3,0.7,1.7
	c1,0.9,2.5,0.9,3.5,0C125,66,125.3,65.3,125.3,64.7L125.3,64.7z"/>
<path class="st0" d="M136.8,65h-5.9c0.1,0.7,0.4,1.3,0.9,1.8c0.5,0.5,1.2,0.7,1.9,0.7c0.5,0,0.9-0.1,1.3-0.2
	c0.4-0.1,0.8-0.3,1.1-0.6c0.1-0.1,0.1-0.1,0.2-0.1c0.1,0,0.1,0,0.2,0.1c0,0.1,0.1,0.1,0.1,0.2c0,0.1,0,0.2-0.1,0.2
	c-0.3,0.3-0.7,0.5-1.2,0.6c-0.6,0.2-1.1,0.3-1.7,0.3c-0.9,0-1.8-0.3-2.5-1c-0.6-0.6-1-1.5-1-2.3c0-0.8,0.3-1.6,0.9-2.2
	c0.6-0.6,1.4-0.9,2.3-0.9c0.9,0,1.7,0.3,2.3,0.9C136.5,63.2,136.8,64.1,136.8,65z M136.2,64.4c-0.1-0.6-0.4-1.2-0.9-1.5
	c-0.5-0.4-1.1-0.6-1.7-0.6c-0.6,0-1.2,0.2-1.7,0.6c-0.5,0.4-0.8,0.9-0.9,1.5H136.2z"/>
<path class="st0" d="M144.2,61.9v1.5c0.5-0.5,1.1-0.9,1.7-1.3c0.3-0.2,0.6-0.3,1-0.3c0.4,0,0.7,0.1,1,0.3c0.3,0.2,0.4,0.4,0.4,0.5
	c0,0.2-0.1,0.3-0.3,0.3c0,0-0.1,0-0.1,0c-0.1,0-0.1-0.1-0.2-0.2c-0.1-0.1-0.3-0.2-0.4-0.3c-0.1-0.1-0.2-0.1-0.4-0.1
	c-0.3,0-0.6,0.1-0.9,0.3c-0.7,0.4-1.3,0.9-1.8,1.5v3.2h2.5c0.1,0,0.2,0,0.3,0.1c0.1,0,0.1,0.1,0.1,0.2c0,0.1,0,0.2-0.1,0.2
	c-0.1,0.1-0.2,0.1-0.3,0.1h-4.5c-0.1,0-0.2,0-0.3-0.1c-0.1,0-0.1-0.1-0.1-0.2c0-0.1,0-0.1,0.1-0.2c0.1-0.1,0.2-0.1,0.3-0.1h1.4v-4.8
	h-1.1c-0.1,0-0.2,0-0.3-0.1c-0.1-0.1-0.1-0.1-0.1-0.2c0-0.1,0-0.2,0.1-0.2c0.1-0.1,0.2-0.1,0.3-0.1L144.2,61.9z"/>
<g>
	<rect x="22.3" y="65" class="st0" width="42.7" height="0.5"/>
</g>
<g>
	<rect x="159.7" y="65" class="st0" width="42.7" height="0.5"/>
</g>
</svg>
