<svg id="Capa_1" data-name="Capa 1" xmlns="http://www.w3.org/2000/svg" viewBox="0 0 85.42 99.71"><defs><style>.cls-1{fill:#6e849b;}</style></defs><title>Sin título-1</title><path class="cls-1" d="M45.23,0C15.24,0,0,19.43,0,35.72a29.67,29.67,0,0,0,1.16,8.61C3,50.44,6.83,55.37,13,57.64a2.14,2.14,0,0,0,3.12-1.41c.35-1,1-3.51,1.33-4.6.46-1.46.3-2-.86-3.19a15.21,15.21,0,0,1-3.48-6,18.22,18.22,0,0,1-.75-5.3c0-14.45,12-27.44,31.21-27.44,17,0,26.36,9.36,26.36,21.92a47.78,47.78,0,0,1-1.17,10.61C66.08,53.8,59.13,62.13,49.81,62.13c-6.61,0-11.65-4.92-10-11,.92-3.41,2.26-7,3.41-10.45s2.26-7.14,2.26-9.85c0-4.76-2.78-8.6-8.62-8.6-6.78,0-12.23,6.39-12.23,14.83A22.09,22.09,0,0,0,25,41.24a19.45,19.45,0,0,0,1.62,4.87s-6.95,26.58-8.11,31.23C16.1,86.65,18.19,98,18.36,99.1c.06.65,1,.81,1.5.32.65-.76,8.69-9.69,11.47-18.72.7-2.61,4.47-15.8,4.47-15.8,2.13,3.83,8.56,7.19,15.45,7.19C67.76,72.09,80,60.89,84,44.6a48.54,48.54,0,0,0,1.39-11.8C85.42,15.75,69.5,0,45.23,0"/></svg>