<svg id="Capa_1" data-name="Capa 1" xmlns="http://www.w3.org/2000/svg" viewBox="0 0 46.31 99.7"><defs><style>.cls-1{fill:#fff;}</style></defs><title>sns_icono_w_</title><path class="cls-1" d="M10.2,50.24V98.45a1.25,1.25,0,0,0,1.26,1.25h17.9a1.26,1.26,0,0,0,1.26-1.25v-49h13a1.25,1.25,0,0,0,1.25-1.16l1.25-14.76a1.25,1.25,0,0,0-1.25-1.35H30.62V21.72a4.44,4.44,0,0,1,4.44-4.45h10A1.25,1.25,0,0,0,46.31,16V1.26A1.25,1.25,0,0,0,45.06,0H28.16a18,18,0,0,0-18,18V32.19H1.26A1.25,1.25,0,0,0,0,33.44V48.2a1.26,1.26,0,0,0,1.26,1.26H10.2Z"/></svg>