<svg id="Capa_1" data-name="Capa 1" xmlns="http://www.w3.org/2000/svg" viewBox="0 0 105.97 105.96"><defs><style>.cls-1{fill:#fff;}</style></defs><title>sns_icono_w_</title><path class="cls-1" d="M29.44,11.77A17.68,17.68,0,0,0,11.77,29.43V76.52A17.68,17.68,0,0,0,29.44,94.19H76.53A17.69,17.69,0,0,0,94.2,76.52V29.43A17.69,17.69,0,0,0,76.53,11.77ZM76.53,106H29.44A29.47,29.47,0,0,1,0,76.52V29.43A29.47,29.47,0,0,1,29.44,0H76.53A29.47,29.47,0,0,1,106,29.43V76.52A29.47,29.47,0,0,1,76.53,106"/><path class="cls-1" d="M52,37.28A16.68,16.68,0,1,0,68.68,54,16.69,16.69,0,0,0,52,37.28m0,45.13A28.45,28.45,0,1,1,80.46,54,28.48,28.48,0,0,1,52,82.41"/><path class="cls-1" d="M86.34,25.51a5.89,5.89,0,1,1-5.89-5.89,5.89,5.89,0,0,1,5.89,5.89"/></svg>