<?xml version="1.0" encoding="utf-8"?>
<!-- Generator: Adobe Illustrator 22.1.0, SVG Export Plug-In . SVG Version: 6.00 Build 0)  -->
<svg version="1.1" id="Capa_1" xmlns="http://www.w3.org/2000/svg" xmlns:xlink="http://www.w3.org/1999/xlink" x="0px" y="0px"
	 viewBox="0 0 236.9 235" style="enable-background:new 0 0 236.9 235;" xml:space="preserve">
<style type="text/css">
	.st0{fill:#6E849B;}
</style>
<path class="st0" d="M146.9,25.2c-33.6-33.6-88.2-33.6-121.7,0s-33.6,88.2,0,121.7c32.3,32.3,84,33.5,117.8,3.7l7.7,7.7
	c-2.7,6.4-1.4,14.1,3.8,19.3l52.2,52.2c6.9,6.9,18.1,6.9,25,0c6.9-6.9,6.9-18.1,0-25l-52.2-52.2c-5.2-5.2-12.9-6.5-19.3-3.8
	l-7.9-7.9C180.3,107.1,178.5,56.8,146.9,25.2z M33.7,138.4c-28.9-28.9-28.9-75.8,0-104.7s75.8-28.9,104.7,0s28.9,75.8,0,104.7
	S62.6,167.2,33.7,138.4z"/>
</svg>
