<svg id="Capa_1" data-name="Capa 1" xmlns="http://www.w3.org/2000/svg" viewBox="0 0 96.94 79.85"><defs><style>.cls-1{fill:#6e849b;}</style></defs><title>Sin título-1</title><path class="cls-1" d="M96.58,9.57a40.16,40.16,0,0,1-9.79,2.8c1.58-.26,3.9-3.12,4.83-4.28a17.94,17.94,0,0,0,3.26-5.93c.08-.17.15-.39,0-.52a.56.56,0,0,0-.52.05A50.26,50.26,0,0,1,82.71,6.14a.77.77,0,0,1-.8-.22,10.07,10.07,0,0,0-1-1,20.52,20.52,0,0,0-5.64-3.44A19.47,19.47,0,0,0,66.61,0a20.57,20.57,0,0,0-8.19,2.32,21,21,0,0,0-6.62,5.4,20.47,20.47,0,0,0-3.95,7.91A21.39,21.39,0,0,0,47.64,24c.07.46,0,.52-.4.46-16-2.38-29.22-8.09-40-20.34-.47-.54-.72-.54-1.1,0C1.46,11.24,3.75,22.57,9.62,28.13c.79.74,1.59,1.49,2.46,2.17a20.42,20.42,0,0,1-7.71-2.17c-.47-.29-.7-.12-.75.41a12.93,12.93,0,0,0,.13,2.29A20.54,20.54,0,0,0,16.38,47.17a12.82,12.82,0,0,0,2.56.78c-1.54.33-3.13.58-7.56.24-.55-.11-.76.16-.55.69C14.16,58,21.34,60.66,26.73,62.19c.72.13,1.44.13,2.16.3-.05.07-.09.07-.13.13-1.79,2.72-8,4.74-10.86,5.75A39,39,0,0,1,1.42,70.48c-.88-.13-1.08-.13-1.31,0s0,.36.25.59c1.13.74,2.27,1.4,3.43,2a55.17,55.17,0,0,0,11,4.42C34.62,83,56.92,79,71.8,64.19c11.67-11.6,15.76-27.6,15.76-43.62,0-.63.75-1,1.18-1.3a38.38,38.38,0,0,0,7.72-8.07,2.28,2.28,0,0,0,.48-1.54V9.57c0-.25,0-.18-.36,0"/></svg>